<svg width="136" height="20" viewBox="0 0 136 20" fill="none" xmlns="http://www.w3.org/2000/svg">
<path d="M4.20561 17.7719C3.47056 17.7719 2.84153 17.6164 2.31851 17.3054C1.7955 16.9944 1.39264 16.5527 1.10992 15.9802C0.834281 15.4077 0.69646 14.7257 0.69646 13.9341C0.69646 13.3404 0.774205 12.8103 0.929696 12.3438C1.09225 11.8703 1.32196 11.471 1.6188 11.1458C1.92272 10.8136 2.29378 10.5592 2.73198 10.3825C3.17018 10.1988 3.66139 10.1069 4.20561 10.1069C4.64381 10.1069 5.06081 10.1705 5.4566 10.2977C5.8524 10.4179 6.19518 10.5981 6.48496 10.8384C6.57684 10.9091 6.63692 10.9903 6.66519 11.0822C6.70053 11.167 6.70406 11.2519 6.67579 11.3367C6.65459 11.4144 6.61218 11.4816 6.54857 11.5381C6.49203 11.5876 6.42135 11.6123 6.33654 11.6123C6.25173 11.6123 6.15631 11.577 6.0503 11.5063C5.79586 11.3013 5.51668 11.1494 5.21276 11.0504C4.90885 10.9515 4.5802 10.902 4.22681 10.902C3.66846 10.902 3.19492 11.0221 2.80619 11.2625C2.41746 11.4957 2.12415 11.8385 1.92625 12.2908C1.72835 12.7431 1.62941 13.2909 1.62941 13.9341C1.62941 14.5772 1.72835 15.1285 1.92625 15.5879C2.12415 16.0403 2.41746 16.3866 2.80619 16.6269C3.19492 16.8601 3.66846 16.9767 4.22681 16.9767C4.57313 16.9767 4.90178 16.9273 5.21276 16.8283C5.52375 16.7223 5.80999 16.5668 6.0715 16.3618C6.17752 16.2912 6.27293 16.2594 6.35774 16.2664C6.44256 16.2664 6.51323 16.2912 6.56978 16.3406C6.62632 16.3901 6.66519 16.4537 6.68639 16.5315C6.71467 16.6092 6.71467 16.6905 6.68639 16.7753C6.66519 16.8601 6.61218 16.9343 6.52737 16.9979C6.23052 17.2524 5.88067 17.4468 5.47781 17.581C5.08201 17.7083 4.65794 17.7719 4.20561 17.7719ZM8.42349 17.7507C8.28214 17.7507 8.17259 17.7118 8.09484 17.634C8.02416 17.5563 7.98882 17.4468 7.98882 17.3054V12.8845C7.98882 12.7431 8.02416 12.6371 8.09484 12.5665C8.16552 12.4887 8.268 12.4498 8.40229 12.4498C8.53658 12.4498 8.63906 12.4887 8.70974 12.5665C8.78748 12.6371 8.82635 12.7431 8.82635 12.8845V13.7432H8.72034C8.83342 13.3262 9.04899 13.0047 9.36704 12.7785C9.68509 12.5523 10.0773 12.4322 10.5438 12.418C10.6498 12.411 10.7347 12.4357 10.7983 12.4922C10.8619 12.5417 10.8972 12.6301 10.9043 12.7573C10.9113 12.8774 10.8831 12.9729 10.8195 13.0435C10.7559 13.1142 10.6569 13.1566 10.5226 13.1707L10.353 13.192C9.87238 13.2344 9.50133 13.3899 9.23982 13.6584C8.98538 13.9199 8.85816 14.2804 8.85816 14.7398V17.3054C8.85816 17.4468 8.81929 17.5563 8.74154 17.634C8.67086 17.7118 8.56485 17.7507 8.42349 17.7507ZM14.0481 17.7719C13.5039 17.7719 13.0339 17.6659 12.6381 17.4538C12.2493 17.2347 11.9454 16.9273 11.7263 16.5315C11.5143 16.1357 11.4083 15.6621 11.4083 15.1109C11.4083 14.5737 11.5143 14.1072 11.7263 13.7114C11.9384 13.3086 12.2281 12.9941 12.5957 12.7679C12.9702 12.5417 13.4014 12.4286 13.8891 12.4286C14.2354 12.4286 14.5464 12.4887 14.822 12.6089C15.0976 12.7219 15.3309 12.888 15.5217 13.1071C15.7196 13.3262 15.868 13.5913 15.967 13.9023C16.073 14.2132 16.126 14.5631 16.126 14.9518C16.126 15.0649 16.0942 15.1497 16.0306 15.2063C15.967 15.2557 15.8751 15.2805 15.7549 15.2805H12.0656V14.7186H15.5535L15.3839 14.8564C15.3839 14.4748 15.3273 14.1532 15.2143 13.8917C15.1012 13.6231 14.9351 13.4181 14.716 13.2768C14.504 13.1354 14.2354 13.0647 13.9103 13.0647C13.5498 13.0647 13.2424 13.1495 12.9879 13.3192C12.7405 13.4817 12.5532 13.7114 12.426 14.0083C12.2988 14.2981 12.2352 14.6373 12.2352 15.026V15.0896C12.2352 15.7399 12.3907 16.2346 12.7017 16.5739C13.0197 16.9131 13.4685 17.0828 14.0481 17.0828C14.2884 17.0828 14.5252 17.051 14.7584 16.9873C14.9987 16.9237 15.2319 16.8177 15.4581 16.6693C15.5571 16.6057 15.6454 16.5774 15.7231 16.5845C15.808 16.5845 15.8751 16.6092 15.9246 16.6587C15.9741 16.7011 16.0059 16.7576 16.02 16.8283C16.0412 16.8919 16.0341 16.9626 15.9988 17.0404C15.9705 17.1181 15.9104 17.1852 15.8186 17.2418C15.5853 17.4114 15.3097 17.5422 14.9916 17.634C14.6736 17.7259 14.3591 17.7719 14.0481 17.7719ZM18.9909 17.7719C18.6375 17.7719 18.3194 17.7047 18.0367 17.5704C17.7611 17.4291 17.542 17.2383 17.3794 16.9979C17.2168 16.7576 17.1356 16.4891 17.1356 16.1922C17.1356 15.8106 17.231 15.5102 17.4218 15.2911C17.6197 15.072 17.9413 14.9165 18.3866 14.8246C18.8389 14.7327 19.4538 14.6868 20.2313 14.6868H20.7083V15.2487H20.2419C19.6694 15.2487 19.217 15.2769 18.8848 15.3335C18.5597 15.383 18.33 15.4713 18.1957 15.5985C18.0685 15.7257 18.0049 15.906 18.0049 16.1392C18.0049 16.429 18.1039 16.6658 18.3017 16.8495C18.5067 17.0333 18.7824 17.1252 19.1287 17.1252C19.4114 17.1252 19.6588 17.058 19.8708 16.9237C20.0899 16.7894 20.2595 16.6057 20.3797 16.3724C20.5069 16.1392 20.5705 15.8706 20.5705 15.5667V14.3581C20.5705 13.9199 20.4822 13.6054 20.3055 13.4146C20.1288 13.2167 19.839 13.1177 19.4361 13.1177C19.1888 13.1177 18.9414 13.1495 18.694 13.2132C18.4466 13.2768 18.1851 13.3792 17.9095 13.5206C17.8105 13.5701 17.7257 13.5877 17.655 13.5736C17.5844 13.5524 17.5278 13.5135 17.4854 13.457C17.443 13.4005 17.4183 13.3368 17.4112 13.2662C17.4041 13.1884 17.4183 13.1142 17.4536 13.0435C17.496 12.9729 17.5596 12.9163 17.6444 12.8739C17.9554 12.7184 18.2629 12.6053 18.5668 12.5347C18.8707 12.464 19.1605 12.4286 19.4361 12.4286C19.8814 12.4286 20.2489 12.5028 20.5387 12.6513C20.8285 12.7926 21.044 13.0117 21.1854 13.3086C21.3268 13.5983 21.3974 13.9729 21.3974 14.4323V17.3054C21.3974 17.4468 21.3621 17.5563 21.2914 17.634C21.2278 17.7118 21.1324 17.7507 21.0052 17.7507C20.8709 17.7507 20.7684 17.7118 20.6977 17.634C20.627 17.5563 20.5917 17.4468 20.5917 17.3054V16.4785H20.6871C20.6306 16.747 20.521 16.9767 20.3585 17.1676C20.203 17.3584 20.0086 17.5068 19.7754 17.6128C19.5421 17.7189 19.2806 17.7719 18.9909 17.7719ZM25.0579 17.7719C24.655 17.7719 24.3158 17.7012 24.0401 17.5598C23.7716 17.4114 23.5701 17.1994 23.4358 16.9237C23.3016 16.641 23.2344 16.2982 23.2344 15.8954V13.192H22.5241C22.404 13.192 22.3121 13.1637 22.2485 13.1071C22.1849 13.0435 22.153 12.9587 22.153 12.8527C22.153 12.7467 22.1849 12.6654 22.2485 12.6089C22.3121 12.5523 22.404 12.524 22.5241 12.524H23.2344V11.3049C23.2344 11.1635 23.2733 11.0575 23.351 10.9868C23.4288 10.9091 23.5348 10.8702 23.6691 10.8702C23.8034 10.8702 23.9059 10.9091 23.9765 10.9868C24.0543 11.0575 24.0932 11.1635 24.0932 11.3049V12.524H25.429C25.5491 12.524 25.641 12.5523 25.7046 12.6089C25.7682 12.6654 25.8 12.7467 25.8 12.8527C25.8 12.9587 25.7682 13.0435 25.7046 13.1071C25.641 13.1637 25.5491 13.192 25.429 13.192H24.0932V15.8106C24.0932 16.2134 24.178 16.5209 24.3476 16.7329C24.5172 16.9379 24.7929 17.0404 25.1745 17.0404C25.3088 17.0404 25.4219 17.0262 25.5138 16.9979C25.6127 16.9697 25.694 16.9555 25.7576 16.9555C25.8212 16.9485 25.8742 16.9697 25.9166 17.0192C25.959 17.0686 25.9802 17.1534 25.9802 17.2736C25.9802 17.3584 25.9626 17.4361 25.9272 17.5068C25.899 17.5775 25.846 17.627 25.7682 17.6552C25.6834 17.6835 25.5703 17.7083 25.429 17.7295C25.2947 17.7577 25.171 17.7719 25.0579 17.7719ZM28.967 17.7719C28.4228 17.7719 27.9528 17.6659 27.557 17.4538C27.1683 17.2347 26.8644 16.9273 26.6453 16.5315C26.4332 16.1357 26.3272 15.6621 26.3272 15.1109C26.3272 14.5737 26.4332 14.1072 26.6453 13.7114C26.8573 13.3086 27.1471 12.9941 27.5146 12.7679C27.8892 12.5417 28.3203 12.4286 28.808 12.4286C29.1543 12.4286 29.4653 12.4887 29.7409 12.6089C30.0166 12.7219 30.2498 12.888 30.4406 13.1071C30.6385 13.3262 30.787 13.5913 30.8859 13.9023C30.9919 14.2132 31.0449 14.5631 31.0449 14.9518C31.0449 15.0649 31.0131 15.1497 30.9495 15.2063C30.8859 15.2557 30.794 15.2805 30.6739 15.2805H26.9845V14.7186H30.4724L30.3028 14.8564C30.3028 14.4748 30.2463 14.1532 30.1332 13.8917C30.0201 13.6231 29.854 13.4181 29.6349 13.2768C29.4229 13.1354 29.1543 13.0647 28.8292 13.0647C28.4687 13.0647 28.1613 13.1495 27.9068 13.3192C27.6595 13.4817 27.4722 13.7114 27.345 14.0083C27.2177 14.2981 27.1541 14.6373 27.1541 15.026V15.0896C27.1541 15.7399 27.3096 16.2346 27.6206 16.5739C27.9387 16.9131 28.3875 17.0828 28.967 17.0828C29.2073 17.0828 29.4441 17.051 29.6773 16.9873C29.9176 16.9237 30.1509 16.8177 30.377 16.6693C30.476 16.6057 30.5643 16.5774 30.6421 16.5845C30.7269 16.5845 30.794 16.6092 30.8435 16.6587C30.893 16.7011 30.9248 16.7576 30.9389 16.8283C30.9601 16.8919 30.9531 16.9626 30.9177 17.0404C30.8894 17.1181 30.8294 17.1852 30.7375 17.2418C30.5043 17.4114 30.2286 17.5422 29.9106 17.634C29.5925 17.7259 29.278 17.7719 28.967 17.7719ZM34.249 17.7719C33.7896 17.7719 33.3868 17.6623 33.0404 17.4432C32.7012 17.2241 32.4362 16.9167 32.2453 16.5209C32.0616 16.118 31.9697 15.6445 31.9697 15.1003C31.9697 14.549 32.0616 14.0754 32.2453 13.6796C32.4362 13.2768 32.7012 12.9693 33.0404 12.7573C33.3868 12.5382 33.7896 12.4286 34.249 12.4286C34.7155 12.4286 35.1148 12.5453 35.447 12.7785C35.7792 13.0117 36.0018 13.3262 36.1149 13.722H35.9983V10.5627C35.9983 10.4214 36.0336 10.3154 36.1043 10.2447C36.1821 10.1669 36.2916 10.1281 36.433 10.1281C36.5673 10.1281 36.6697 10.1669 36.7404 10.2447C36.8182 10.3154 36.857 10.4214 36.857 10.5627V17.3054C36.857 17.4468 36.8217 17.5563 36.751 17.634C36.6804 17.7118 36.5743 17.7507 36.433 17.7507C36.2987 17.7507 36.1927 17.7118 36.1149 17.634C36.0443 17.5563 36.0089 17.4468 36.0089 17.3054V16.2982L36.1255 16.4467C36.0124 16.8495 35.7863 17.1711 35.447 17.4114C35.1148 17.6517 34.7155 17.7719 34.249 17.7719ZM34.4293 17.0828C34.7473 17.0828 35.0265 17.005 35.2668 16.8495C35.5071 16.694 35.6909 16.4679 35.8181 16.171C35.9524 15.8742 36.0195 15.5172 36.0195 15.1003C36.0195 14.4571 35.8746 13.9659 35.5848 13.6266C35.3021 13.2874 34.9169 13.1177 34.4293 13.1177C34.1041 13.1177 33.8214 13.1955 33.5811 13.351C33.3479 13.4994 33.1641 13.722 33.0298 14.0189C32.9026 14.3087 32.839 14.6691 32.839 15.1003C32.839 15.7363 32.9839 16.2276 33.2737 16.5739C33.5635 16.9131 33.9487 17.0828 34.4293 17.0828ZM43.8098 17.7719C43.3434 17.7719 42.9405 17.6517 42.6012 17.4114C42.2691 17.1711 42.0464 16.8495 41.9333 16.4467L42.0499 16.33V17.3054C42.0499 17.4468 42.0111 17.5563 41.9333 17.634C41.8627 17.7118 41.7602 17.7507 41.6259 17.7507C41.4845 17.7507 41.3785 17.7118 41.3078 17.634C41.2372 17.5563 41.2018 17.4468 41.2018 17.3054V10.5627C41.2018 10.4214 41.2372 10.3154 41.3078 10.2447C41.3785 10.1669 41.4845 10.1281 41.6259 10.1281C41.7602 10.1281 41.8662 10.1669 41.9439 10.2447C42.0217 10.3154 42.0606 10.4214 42.0606 10.5627V13.722H41.9333C42.0535 13.3262 42.2797 13.0117 42.6118 12.7785C42.944 12.5453 43.3434 12.4286 43.8098 12.4286C44.2763 12.4286 44.6792 12.5382 45.0184 12.7573C45.3577 12.9693 45.6192 13.2768 45.8029 13.6796C45.9938 14.0754 46.0892 14.549 46.0892 15.1003C46.0892 15.6445 45.9938 16.118 45.8029 16.5209C45.6192 16.9167 45.3541 17.2241 45.0078 17.4432C44.6686 17.6623 44.2692 17.7719 43.8098 17.7719ZM43.6296 17.0828C43.9547 17.0828 44.2339 17.005 44.4671 16.8495C44.7074 16.694 44.8912 16.4679 45.0184 16.171C45.1527 15.8742 45.2198 15.5172 45.2198 15.1003C45.2198 14.4571 45.075 13.9659 44.7852 13.6266C44.5025 13.2874 44.1173 13.1177 43.6296 13.1177C43.3115 13.1177 43.0324 13.1955 42.7921 13.351C42.5518 13.4994 42.3645 13.722 42.2302 14.0189C42.103 14.3087 42.0393 14.6691 42.0393 15.1003C42.0393 15.7363 42.1842 16.2276 42.474 16.5739C42.7638 16.9131 43.149 17.0828 43.6296 17.0828ZM48.4552 19.659C48.3492 19.659 48.2643 19.6307 48.2007 19.5741C48.1371 19.5176 48.0982 19.4399 48.0841 19.3409C48.077 19.249 48.0947 19.1536 48.1371 19.0547L48.8686 17.4114V17.7825L46.8331 13.0541C46.7907 12.9481 46.7766 12.8492 46.7907 12.7573C46.8048 12.6654 46.8473 12.5912 46.9179 12.5347C46.9886 12.4781 47.0876 12.4498 47.2148 12.4498C47.3279 12.4498 47.4162 12.4746 47.4798 12.524C47.5434 12.5735 47.6 12.6619 47.6494 12.7891L49.3881 17.051H49.1019L50.8617 12.7891C50.9183 12.6619 50.9784 12.5735 51.042 12.524C51.1056 12.4746 51.1975 12.4498 51.3176 12.4498C51.4307 12.4498 51.5155 12.4781 51.5721 12.5347C51.6357 12.5912 51.671 12.6654 51.6781 12.7573C51.6922 12.8421 51.6781 12.9375 51.6357 13.0435L48.9216 19.3197C48.8651 19.4469 48.8015 19.5353 48.7308 19.5848C48.6672 19.6342 48.5753 19.659 48.4552 19.659Z" fill="white"/>
<path d="M118.851 18.633H116.188V6.11907H118.851V18.633Z" fill="white"/>
<path d="M65.7787 8.68491C65.3671 8.679 64.9588 8.76399 64.5803 8.93439C64.2017 9.10479 63.8612 9.35683 63.5807 9.67428C62.9822 10.3266 62.683 11.229 62.683 12.3706C62.683 13.5122 62.9822 14.4363 63.591 15.0995C63.8759 15.4207 64.2213 15.6756 64.6051 15.8479C64.989 16.0202 65.4028 16.1059 65.82 16.0997C66.6042 16.0997 67.2337 15.8714 67.7084 15.4257C68.1497 15.0202 68.4749 14.4931 68.6474 13.9036L71.0001 14.806C70.6906 15.8606 70.0921 16.7738 69.2046 17.5349C68.3172 18.2959 67.1924 18.6765 65.82 18.6765C64.1689 18.6765 62.7862 18.0785 61.6717 16.8717C60.5572 15.6649 60 14.1645 60 12.3706C60 10.5549 60.5469 9.05456 61.6511 7.8695C62.7552 6.68443 64.1173 6.08646 65.758 6.08646C67.1614 6.08646 68.3069 6.46698 69.1943 7.22804C70.0357 7.92472 70.6403 8.88975 70.9176 9.9787L68.5132 10.9028C68.3689 10.3009 68.0604 9.7566 67.6258 9.33724C67.1728 8.90235 66.564 8.68491 65.7787 8.68491Z" fill="white"/>
<path d="M75.4177 15.0669C75.7144 15.3832 76.0675 15.6345 76.4568 15.8063C76.846 15.9782 77.2637 16.0672 77.6858 16.0682C78.1078 16.0692 78.5259 15.9822 78.9159 15.8122C79.3059 15.6422 79.6601 15.3926 79.9581 15.0778C80.5773 14.4146 80.8868 13.5013 80.8868 12.3162C80.8868 11.1529 80.5773 10.2505 79.9581 9.59817C79.3524 8.97109 78.5371 8.61972 77.6879 8.61972C76.8387 8.61972 76.0235 8.97109 75.4177 9.59817C74.7986 10.2505 74.489 11.1529 74.489 12.3162C74.489 13.4795 74.7986 14.4037 75.4177 15.0669ZM77.6879 6.08646C79.4112 6.08646 80.8353 6.67355 81.9497 7.84775C83.0642 9.02195 83.6317 10.5114 83.6317 12.3271C83.6317 14.1427 83.0745 15.6322 81.9497 16.8173C80.8249 18.0024 79.4112 18.5895 77.6879 18.5895C75.9853 18.5895 74.5716 18.0024 73.4468 16.8173C72.322 15.6322 71.7648 14.1319 71.7648 12.3271C71.7648 10.5223 72.322 9.03282 73.4468 7.84775C74.5716 6.66268 75.975 6.08646 77.6879 6.08646Z" fill="white"/>
<path d="M90.5765 6.16256V9.02195C90.2861 8.97501 89.993 8.94958 89.6993 8.94584C87.6768 8.94584 86.6758 9.98957 86.6758 12.3053V18.5895H83.9929V6.11907H86.6036V8.11955C86.8603 7.48989 87.3062 6.96655 87.8729 6.63006C88.4772 6.26075 89.1659 6.07275 89.8644 6.08645C90.1037 6.08429 90.3425 6.10981 90.5765 6.16256Z" fill="white"/>
<path d="M94.2397 11.0442H100.214C100.205 10.6923 100.128 10.3461 99.9877 10.0266C99.8476 9.70702 99.6474 9.42074 99.3993 9.18503C98.8936 8.68491 98.161 8.43485 97.2116 8.43485C96.3448 8.43485 95.6431 8.69578 95.1169 9.21765C94.5906 9.73951 94.2913 10.3527 94.2397 11.0442ZM100.534 14.1101L102.98 14.8603C102.629 15.9367 101.979 16.8282 101.019 17.5349C100.06 18.2416 98.8833 18.5895 97.4799 18.5895C95.7463 18.5895 94.281 18.0133 93.0737 16.8717C91.8663 15.7301 91.2575 14.1971 91.2575 12.2727C91.2575 10.4679 91.8457 8.97846 93.0221 7.82601C94.1373 6.69261 95.6313 6.06765 97.1807 6.08646C99.0484 6.08646 100.503 6.64094 101.556 7.73903C102.609 8.83712 103.134 10.3266 103.134 12.201C103.134 12.7011 103.113 12.9946 103.062 13.0925H94.1665C94.1776 13.5132 94.2735 13.9266 94.4479 14.3052C94.6222 14.6838 94.871 15.0191 95.1777 15.2887C95.8204 15.8683 96.6434 16.178 97.4892 16.1585C99.0484 16.165 100.07 15.48 100.534 14.1101Z" fill="white"/>
<path d="M106.427 18.633H103.702V0.676453H106.447V7.90646C106.736 7.40634 107.211 6.98232 107.871 6.64529C108.58 6.2927 109.357 6.11781 110.141 6.13429C111.844 6.13429 113.175 6.71052 114.135 7.87384C115.095 9.03717 115.569 10.5158 115.569 12.3206C115.569 14.158 115.064 15.6583 114.063 16.8434C113.062 18.0285 111.72 18.6047 110.049 18.6047C108.377 18.6047 107.17 17.985 106.427 16.7347V18.633ZM111.865 15.0778C112.453 14.4037 112.742 13.4904 112.742 12.338C112.742 11.1855 112.453 10.2831 111.875 9.61992C111.297 8.95671 110.534 8.63055 109.584 8.63055C108.666 8.63055 107.913 8.95671 107.314 9.61992C106.715 10.2831 106.427 11.1855 106.427 12.338C106.427 13.4904 106.726 14.3819 107.314 15.0669C107.902 15.7518 108.666 16.0889 109.584 16.0889C110.523 16.0889 111.277 15.7518 111.865 15.0778Z" fill="white"/>
<path d="M131.44 18.6221H119.697V16.165L127.116 8.59793H119.573V6.11907H131.419V8.50443L123.907 16.1367H131.44V18.6264V18.6221Z" fill="white"/>
<path d="M132.75 18.1016C132.572 17.9197 132.431 17.7018 132.337 17.461C132.242 17.2203 132.196 16.9619 132.2 16.7017C132.196 16.44 132.242 16.18 132.337 15.9375C132.431 15.6951 132.572 15.4753 132.75 15.2914C132.922 15.1011 133.13 14.9507 133.36 14.8499C133.591 14.7491 133.84 14.7002 134.09 14.7064C134.596 14.7069 135.082 14.9173 135.44 15.2914C135.798 15.6655 135.999 16.1727 136 16.7017C136.005 16.963 135.959 17.2227 135.862 17.4639C135.766 17.7051 135.622 17.9224 135.44 18.1016C135.263 18.2871 135.053 18.4336 134.821 18.5324C134.589 18.6311 134.34 18.68 134.09 18.6761C133.841 18.6809 133.594 18.6323 133.363 18.5335C133.133 18.4347 132.924 18.2877 132.75 18.1016Z" fill="#BFBFBF"/>
</svg>
