<svg width="76" height="31" viewBox="0 0 76 31" fill="none" xmlns="http://www.w3.org/2000/svg">
<path d="M58.8507 30.9565H56.1884V18.4426H58.8507V30.9565Z" fill="white"/>
<path d="M5.77868 21.0085C5.36706 21.0026 4.95883 21.0875 4.58027 21.2579C4.20171 21.4283 3.86122 21.6804 3.58072 21.9978C2.98221 22.6502 2.68296 23.5525 2.68296 24.6941C2.68296 25.8357 2.98221 26.7598 3.59104 27.423C3.87586 27.7443 4.22128 27.9992 4.60513 28.1714C4.98898 28.3437 5.40278 28.4295 5.81996 28.4233C6.60421 28.4233 7.23367 28.195 7.70835 27.7492C8.14965 27.3438 8.47485 26.8166 8.64739 26.2271L11.0001 27.1295C10.6906 28.1841 10.0921 29.0974 9.20462 29.8584C8.31718 30.6195 7.1924 31 5.81996 31C4.16891 31 2.78615 30.402 1.67169 29.1952C0.55723 27.9884 0 26.488 0 24.6941C0 22.8785 0.546911 21.3781 1.65105 20.193C2.75519 19.008 4.11731 18.41 5.75805 18.41C7.16144 18.41 8.30686 18.7905 9.1943 19.5516C10.0357 20.2483 10.6403 21.2133 10.9176 22.3022L8.51324 23.2264C8.36888 22.6244 8.06037 22.0801 7.6258 21.6608C7.17279 21.2259 6.56396 21.0085 5.77868 21.0085Z" fill="white"/>
<path d="M15.4177 27.3904C15.7144 27.7067 16.0675 27.958 16.4568 28.1299C16.846 28.3017 17.2637 28.3907 17.6858 28.3917C18.1078 28.3927 18.5259 28.3057 18.9159 28.1358C19.3059 27.9658 19.6601 27.7162 19.9581 27.4013C20.5773 26.7381 20.8868 25.8248 20.8868 24.6398C20.8868 23.4764 20.5773 22.5741 19.9581 21.9217C19.3524 21.2946 18.5371 20.9433 17.6879 20.9433C16.8387 20.9433 16.0235 21.2946 15.4177 21.9217C14.7986 22.5741 14.489 23.4764 14.489 24.6398C14.489 25.8031 14.7986 26.7272 15.4177 27.3904ZM17.6879 18.41C19.4112 18.41 20.8353 18.9971 21.9497 20.1713C23.0642 21.3455 23.6317 22.835 23.6317 24.6506C23.6317 26.4663 23.0745 27.9558 21.9497 29.1409C20.8249 30.3259 19.4112 30.913 17.6879 30.913C15.9853 30.913 14.5716 30.3259 13.4468 29.1409C12.322 27.9558 11.7648 26.4554 11.7648 24.6506C11.7648 22.8459 12.322 21.3564 13.4468 20.1713C14.5716 18.9862 15.975 18.41 17.6879 18.41Z" fill="white"/>
<path d="M30.5765 18.4861V21.3455C30.2861 21.2986 29.993 21.2731 29.6993 21.2694C27.6768 21.2694 26.6758 22.3131 26.6758 24.6289V30.913H23.9929V18.4426H26.6036V20.4431C26.8603 19.8134 27.3062 19.2901 27.8729 18.9536C28.4772 18.5843 29.1659 18.3963 29.8644 18.41C30.1037 18.4078 30.3425 18.4334 30.5765 18.4861Z" fill="white"/>
<path d="M34.2397 23.3677H40.2145C40.205 23.0159 40.1278 22.6697 39.9877 22.3501C39.8476 22.0306 39.6474 21.7443 39.3993 21.5086C38.8936 21.0085 38.161 20.7584 37.2116 20.7584C36.3448 20.7584 35.6431 21.0193 35.1169 21.5412C34.5906 22.0631 34.2913 22.6763 34.2397 23.3677ZM40.5344 26.4337L42.98 27.1839C42.6291 28.2602 41.979 29.1517 41.0194 29.8584C40.0597 30.5651 38.8833 30.913 37.4799 30.913C35.7463 30.913 34.281 30.3368 33.0737 29.1952C31.8663 28.0536 31.2575 26.5207 31.2575 24.5963C31.2575 22.7915 31.8457 21.302 33.0221 20.1496C34.1373 19.0162 35.6313 18.3912 37.1807 18.41C39.0484 18.41 40.5034 18.9645 41.556 20.0626C42.6085 21.1607 43.1337 22.6502 43.1337 24.5245C43.1337 25.0246 43.1131 25.3182 43.0615 25.416H34.1665C34.1776 25.8367 34.2735 26.2501 34.4479 26.6287C34.6222 27.0074 34.871 27.3426 35.1777 27.6122C35.8204 28.1919 36.6434 28.5016 37.4892 28.482C39.0484 28.4885 40.07 27.8036 40.5344 26.4337Z" fill="white"/>
<path d="M46.4266 30.9565H43.7023V13H46.4472V20.23C46.7361 19.7299 47.2108 19.3059 47.8712 18.9688C48.5804 18.6163 49.3574 18.4414 50.1414 18.4578C51.8441 18.4578 53.1752 19.0341 54.1349 20.1974C55.0946 21.3607 55.5693 22.8393 55.5693 24.6441C55.5693 26.4815 55.0636 27.9819 54.0627 29.1669C53.0617 30.352 51.7202 30.9282 50.0486 30.9282C48.3769 30.9282 47.1695 30.3085 46.4266 29.0582V30.9565ZM51.8647 27.4013C52.4529 26.7272 52.7418 25.814 52.7418 24.6615C52.7418 23.5091 52.4529 22.6067 51.875 21.9435C51.2972 21.2803 50.5336 20.9541 49.5842 20.9541C48.6658 20.9541 47.9125 21.2803 47.314 21.9435C46.7155 22.6067 46.4266 23.5091 46.4266 24.6615C46.4266 25.814 46.7258 26.7055 47.314 27.3904C47.9022 28.0754 48.6658 28.4124 49.5842 28.4124C50.5232 28.4124 51.2765 28.0754 51.8647 27.4013Z" fill="white"/>
<path d="M71.44 30.9456H59.6969V28.4885L67.1163 20.9215H59.5731V18.4426H71.4194V20.828L63.9071 28.4603H71.44V30.95V30.9456Z" fill="white"/>
<path d="M72.7501 30.4251C72.572 30.2433 72.4313 30.0253 72.3368 29.7846C72.2422 29.5438 72.1957 29.2854 72.2003 29.0253C72.1957 28.7635 72.242 28.5035 72.3366 28.2611C72.4311 28.0187 72.5718 27.7988 72.7501 27.615C72.9217 27.4247 73.1296 27.2743 73.3604 27.1735C73.5912 27.0727 73.8398 27.0238 74.0899 27.0299C74.5962 27.0305 75.0816 27.2409 75.4396 27.615C75.7976 27.989 75.9989 28.4962 75.9995 29.0253C76.0054 29.2866 75.9586 29.5463 75.8621 29.7875C75.7656 30.0286 75.6217 30.2459 75.4396 30.4251C75.263 30.6107 75.0526 30.7572 74.8207 30.8559C74.5888 30.9546 74.3402 31.0035 74.0899 30.9997C73.8409 31.0044 73.5936 30.9559 73.3632 30.8571C73.1328 30.7583 72.9242 30.6113 72.7501 30.4251Z" fill="#BFBFBF"/>
<path d="M17.92 10.09C17.2267 10.09 16.6333 9.94333 16.14 9.65C15.6467 9.35667 15.2667 8.94 15 8.4C14.74 7.86 14.61 7.21667 14.61 6.47C14.61 5.91 14.6833 5.41 14.83 4.97C14.9833 4.52333 15.2 4.14667 15.48 3.84C15.7667 3.52667 16.1167 3.28667 16.53 3.12C16.9433 2.94667 17.4067 2.86 17.92 2.86C18.3333 2.86 18.7267 2.92 19.1 3.04C19.4733 3.15333 19.7967 3.32333 20.07 3.55C20.1567 3.61667 20.2133 3.69333 20.24 3.78C20.2733 3.86 20.2767 3.94 20.25 4.02C20.23 4.09333 20.19 4.15667 20.13 4.21C20.0767 4.25667 20.01 4.28 19.93 4.28C19.85 4.28 19.76 4.24667 19.66 4.18C19.42 3.98667 19.1567 3.84333 18.87 3.75C18.5833 3.65667 18.2733 3.61 17.94 3.61C17.4133 3.61 16.9667 3.72333 16.6 3.95C16.2333 4.17 15.9567 4.49333 15.77 4.92C15.5833 5.34667 15.49 5.86333 15.49 6.47C15.49 7.07667 15.5833 7.59667 15.77 8.03C15.9567 8.45667 16.2333 8.78333 16.6 9.01C16.9667 9.23 17.4133 9.34 17.94 9.34C18.2667 9.34 18.5767 9.29333 18.87 9.2C19.1633 9.1 19.4333 8.95333 19.68 8.76C19.78 8.69333 19.87 8.66333 19.95 8.67C20.03 8.67 20.0967 8.69333 20.15 8.74C20.2033 8.78667 20.24 8.84667 20.26 8.92C20.2867 8.99333 20.2867 9.07 20.26 9.15C20.24 9.23 20.19 9.3 20.11 9.36C19.83 9.6 19.5 9.78333 19.12 9.91C18.7467 10.03 18.3467 10.09 17.92 10.09ZM21.8985 10.07C21.7652 10.07 21.6618 10.0333 21.5885 9.96C21.5218 9.88667 21.4885 9.78333 21.4885 9.65V5.48C21.4885 5.34667 21.5218 5.24667 21.5885 5.18C21.6552 5.10667 21.7518 5.07 21.8785 5.07C22.0052 5.07 22.1018 5.10667 22.1685 5.18C22.2418 5.24667 22.2785 5.34667 22.2785 5.48V6.29H22.1785C22.2852 5.89667 22.4885 5.59333 22.7885 5.38C23.0885 5.16667 23.4585 5.05333 23.8985 5.04C23.9985 5.03333 24.0785 5.05667 24.1385 5.11C24.1985 5.15667 24.2318 5.24 24.2385 5.36C24.2452 5.47333 24.2185 5.56333 24.1585 5.63C24.0985 5.69667 24.0052 5.73667 23.8785 5.75L23.7185 5.77C23.2652 5.81 22.9152 5.95667 22.6685 6.21C22.4285 6.45667 22.3085 6.79667 22.3085 7.23V9.65C22.3085 9.78333 22.2718 9.88667 22.1985 9.96C22.1318 10.0333 22.0318 10.07 21.8985 10.07ZM27.2039 10.09C26.6906 10.09 26.2472 9.99 25.8739 9.79C25.5072 9.58333 25.2206 9.29333 25.0139 8.92C24.8139 8.54667 24.7139 8.1 24.7139 7.58C24.7139 7.07333 24.8139 6.63333 25.0139 6.26C25.2139 5.88 25.4872 5.58333 25.8339 5.37C26.1872 5.15667 26.5939 5.05 27.0539 5.05C27.3806 5.05 27.6739 5.10667 27.9339 5.22C28.1939 5.32667 28.4139 5.48333 28.5939 5.69C28.7806 5.89667 28.9206 6.14667 29.0139 6.44C29.1139 6.73333 29.1639 7.06333 29.1639 7.43C29.1639 7.53667 29.1339 7.61667 29.0739 7.67C29.0139 7.71667 28.9272 7.74 28.8139 7.74H25.3339V7.21H28.6239L28.4639 7.34C28.4639 6.98 28.4106 6.67667 28.3039 6.43C28.1972 6.17667 28.0406 5.98333 27.8339 5.85C27.6339 5.71667 27.3806 5.65 27.0739 5.65C26.7339 5.65 26.4439 5.73 26.2039 5.89C25.9706 6.04333 25.7939 6.26 25.6739 6.54C25.5539 6.81333 25.4939 7.13333 25.4939 7.5V7.56C25.4939 8.17333 25.6406 8.64 25.9339 8.96C26.2339 9.28 26.6572 9.44 27.2039 9.44C27.4306 9.44 27.6539 9.41 27.8739 9.35C28.1006 9.29 28.3206 9.19 28.5339 9.05C28.6272 8.99 28.7106 8.96333 28.7839 8.97C28.8639 8.97 28.9272 8.99333 28.9739 9.04C29.0206 9.08 29.0506 9.13333 29.0639 9.2C29.0839 9.26 29.0772 9.32667 29.0439 9.4C29.0172 9.47333 28.9606 9.53667 28.8739 9.59C28.6539 9.75 28.3939 9.87333 28.0939 9.96C27.7939 10.0467 27.4972 10.09 27.2039 10.09ZM31.8662 10.09C31.5328 10.09 31.2328 10.0267 30.9662 9.9C30.7062 9.76667 30.4995 9.58667 30.3462 9.36C30.1928 9.13333 30.1162 8.88 30.1162 8.6C30.1162 8.24 30.2062 7.95667 30.3862 7.75C30.5728 7.54333 30.8762 7.39667 31.2962 7.31C31.7228 7.22333 32.3028 7.18 33.0362 7.18H33.4862V7.71H33.0462C32.5062 7.71 32.0795 7.73667 31.7662 7.79C31.4595 7.83667 31.2428 7.92 31.1162 8.04C30.9962 8.16 30.9362 8.33 30.9362 8.55C30.9362 8.82333 31.0295 9.04667 31.2162 9.22C31.4095 9.39333 31.6695 9.48 31.9962 9.48C32.2628 9.48 32.4962 9.41667 32.6962 9.29C32.9028 9.16333 33.0628 8.99 33.1762 8.77C33.2962 8.55 33.3562 8.29667 33.3562 8.01V6.87C33.3562 6.45667 33.2728 6.16 33.1062 5.98C32.9395 5.79333 32.6662 5.7 32.2862 5.7C32.0528 5.7 31.8195 5.73 31.5862 5.79C31.3528 5.85 31.1062 5.94667 30.8462 6.08C30.7528 6.12667 30.6728 6.14333 30.6062 6.13C30.5395 6.11 30.4862 6.07333 30.4462 6.02C30.4062 5.96667 30.3828 5.90667 30.3762 5.84C30.3695 5.76667 30.3828 5.69667 30.4162 5.63C30.4562 5.56333 30.5162 5.51 30.5962 5.47C30.8895 5.32333 31.1795 5.21667 31.4662 5.15C31.7528 5.08333 32.0262 5.05 32.2862 5.05C32.7062 5.05 33.0528 5.12 33.3262 5.26C33.5995 5.39333 33.8028 5.6 33.9362 5.88C34.0695 6.15333 34.1362 6.50667 34.1362 6.94V9.65C34.1362 9.78333 34.1028 9.88667 34.0362 9.96C33.9762 10.0333 33.8862 10.07 33.7662 10.07C33.6395 10.07 33.5428 10.0333 33.4762 9.96C33.4095 9.88667 33.3762 9.78333 33.3762 9.65V8.87H33.4662C33.4128 9.12333 33.3095 9.34 33.1562 9.52C33.0095 9.7 32.8262 9.84 32.6062 9.94C32.3862 10.04 32.1395 10.09 31.8662 10.09ZM37.5889 10.09C37.2089 10.09 36.8889 10.0233 36.6289 9.89C36.3756 9.75 36.1856 9.55 36.0589 9.29C35.9322 9.02333 35.8689 8.7 35.8689 8.32V5.77H35.1989C35.0856 5.77 34.9989 5.74333 34.9389 5.69C34.8789 5.63 34.8489 5.55 34.8489 5.45C34.8489 5.35 34.8789 5.27333 34.9389 5.22C34.9989 5.16667 35.0856 5.14 35.1989 5.14H35.8689V3.99C35.8689 3.85667 35.9056 3.75667 35.9789 3.69C36.0522 3.61667 36.1522 3.58 36.2789 3.58C36.4056 3.58 36.5022 3.61667 36.5689 3.69C36.6422 3.75667 36.6789 3.85667 36.6789 3.99V5.14H37.9389C38.0522 5.14 38.1389 5.16667 38.1989 5.22C38.2589 5.27333 38.2889 5.35 38.2889 5.45C38.2889 5.55 38.2589 5.63 38.1989 5.69C38.1389 5.74333 38.0522 5.77 37.9389 5.77H36.6789V8.24C36.6789 8.62 36.7589 8.91 36.9189 9.11C37.0789 9.30333 37.3389 9.4 37.6989 9.4C37.8256 9.4 37.9322 9.38667 38.0189 9.36C38.1122 9.33333 38.1889 9.32 38.2489 9.32C38.3089 9.31333 38.3589 9.33333 38.3989 9.38C38.4389 9.42667 38.4589 9.50667 38.4589 9.62C38.4589 9.7 38.4422 9.77333 38.4089 9.84C38.3822 9.90667 38.3322 9.95333 38.2589 9.98C38.1789 10.0067 38.0722 10.03 37.9389 10.05C37.8122 10.0767 37.6956 10.09 37.5889 10.09ZM41.2762 10.09C40.7628 10.09 40.3195 9.99 39.9462 9.79C39.5795 9.58333 39.2928 9.29333 39.0862 8.92C38.8862 8.54667 38.7862 8.1 38.7862 7.58C38.7862 7.07333 38.8862 6.63333 39.0862 6.26C39.2862 5.88 39.5595 5.58333 39.9062 5.37C40.2595 5.15667 40.6662 5.05 41.1262 5.05C41.4528 5.05 41.7462 5.10667 42.0062 5.22C42.2662 5.32667 42.4862 5.48333 42.6662 5.69C42.8528 5.89667 42.9928 6.14667 43.0862 6.44C43.1862 6.73333 43.2362 7.06333 43.2362 7.43C43.2362 7.53667 43.2062 7.61667 43.1462 7.67C43.0862 7.71667 42.9995 7.74 42.8862 7.74H39.4062V7.21H42.6962L42.5362 7.34C42.5362 6.98 42.4828 6.67667 42.3762 6.43C42.2695 6.17667 42.1128 5.98333 41.9062 5.85C41.7062 5.71667 41.4528 5.65 41.1462 5.65C40.8062 5.65 40.5162 5.73 40.2762 5.89C40.0428 6.04333 39.8662 6.26 39.7462 6.54C39.6262 6.81333 39.5662 7.13333 39.5662 7.5V7.56C39.5662 8.17333 39.7128 8.64 40.0062 8.96C40.3062 9.28 40.7295 9.44 41.2762 9.44C41.5028 9.44 41.7262 9.41 41.9462 9.35C42.1728 9.29 42.3928 9.19 42.6062 9.05C42.6995 8.99 42.7828 8.96333 42.8562 8.97C42.9362 8.97 42.9995 8.99333 43.0462 9.04C43.0928 9.08 43.1228 9.13333 43.1362 9.2C43.1562 9.26 43.1495 9.32667 43.1162 9.4C43.0895 9.47333 43.0328 9.53667 42.9462 9.59C42.7262 9.75 42.4662 9.87333 42.1662 9.96C41.8662 10.0467 41.5695 10.09 41.2762 10.09ZM46.2584 10.09C45.8251 10.09 45.4451 9.98667 45.1184 9.78C44.7984 9.57333 44.5484 9.28333 44.3684 8.91C44.1951 8.53 44.1084 8.08333 44.1084 7.57C44.1084 7.05 44.1951 6.60333 44.3684 6.23C44.5484 5.85 44.7984 5.56 45.1184 5.36C45.4451 5.15333 45.8251 5.05 46.2584 5.05C46.6984 5.05 47.0751 5.16 47.3884 5.38C47.7018 5.6 47.9118 5.89667 48.0184 6.27H47.9084V3.29C47.9084 3.15667 47.9418 3.05667 48.0084 2.99C48.0818 2.91667 48.1851 2.88 48.3184 2.88C48.4451 2.88 48.5418 2.91667 48.6084 2.99C48.6818 3.05667 48.7184 3.15667 48.7184 3.29V9.65C48.7184 9.78333 48.6851 9.88667 48.6184 9.96C48.5518 10.0333 48.4518 10.07 48.3184 10.07C48.1918 10.07 48.0918 10.0333 48.0184 9.96C47.9518 9.88667 47.9184 9.78333 47.9184 9.65V8.7L48.0284 8.84C47.9218 9.22 47.7084 9.52333 47.3884 9.75C47.0751 9.97667 46.6984 10.09 46.2584 10.09ZM46.4284 9.44C46.7284 9.44 46.9918 9.36667 47.2184 9.22C47.4451 9.07333 47.6184 8.86 47.7384 8.58C47.8651 8.3 47.9284 7.96333 47.9284 7.57C47.9284 6.96333 47.7918 6.5 47.5184 6.18C47.2518 5.86 46.8884 5.7 46.4284 5.7C46.1218 5.7 45.8551 5.77333 45.6284 5.92C45.4084 6.06 45.2351 6.27 45.1084 6.55C44.9884 6.82333 44.9284 7.16333 44.9284 7.57C44.9284 8.17 45.0651 8.63333 45.3384 8.96C45.6118 9.28 45.9751 9.44 46.4284 9.44ZM55.2766 10.09C54.8366 10.09 54.4566 9.97667 54.1366 9.75C53.8233 9.52333 53.6133 9.22 53.5066 8.84L53.6166 8.73V9.65C53.6166 9.78333 53.58 9.88667 53.5066 9.96C53.44 10.0333 53.3433 10.07 53.2166 10.07C53.0833 10.07 52.9833 10.0333 52.9166 9.96C52.85 9.88667 52.8166 9.78333 52.8166 9.65V3.29C52.8166 3.15667 52.85 3.05667 52.9166 2.99C52.9833 2.91667 53.0833 2.88 53.2166 2.88C53.3433 2.88 53.4433 2.91667 53.5166 2.99C53.59 3.05667 53.6266 3.15667 53.6266 3.29V6.27H53.5066C53.62 5.89667 53.8333 5.6 54.1466 5.38C54.46 5.16 54.8366 5.05 55.2766 5.05C55.7166 5.05 56.0966 5.15333 56.4166 5.36C56.7366 5.56 56.9833 5.85 57.1566 6.23C57.3366 6.60333 57.4266 7.05 57.4266 7.57C57.4266 8.08333 57.3366 8.53 57.1566 8.91C56.9833 9.28333 56.7333 9.57333 56.4066 9.78C56.0866 9.98667 55.71 10.09 55.2766 10.09ZM55.1066 9.44C55.4133 9.44 55.6766 9.36667 55.8966 9.22C56.1233 9.07333 56.2966 8.86 56.4166 8.58C56.5433 8.3 56.6066 7.96333 56.6066 7.57C56.6066 6.96333 56.47 6.5 56.1966 6.18C55.93 5.86 55.5666 5.7 55.1066 5.7C54.8066 5.7 54.5433 5.77333 54.3166 5.92C54.09 6.06 53.9133 6.27 53.7866 6.55C53.6666 6.82333 53.6066 7.16333 53.6066 7.57C53.6066 8.17 53.7433 8.63333 54.0166 8.96C54.29 9.28 54.6533 9.44 55.1066 9.44ZM59.6584 11.87C59.5584 11.87 59.4784 11.8433 59.4184 11.79C59.3584 11.7367 59.3217 11.6633 59.3084 11.57C59.3017 11.4833 59.3184 11.3933 59.3584 11.3L60.0484 9.75V10.1L58.1284 5.64C58.0884 5.54 58.075 5.44667 58.0884 5.36C58.1017 5.27333 58.1417 5.20333 58.2084 5.15C58.275 5.09667 58.3684 5.07 58.4884 5.07C58.595 5.07 58.6784 5.09333 58.7384 5.14C58.7984 5.18667 58.8517 5.27 58.8984 5.39L60.5384 9.41H60.2684L61.9284 5.39C61.9817 5.27 62.0384 5.18667 62.0984 5.14C62.1584 5.09333 62.245 5.07 62.3584 5.07C62.465 5.07 62.545 5.09667 62.5984 5.15C62.6584 5.20333 62.6917 5.27333 62.6984 5.36C62.7117 5.44 62.6984 5.53 62.6584 5.63L60.0984 11.55C60.045 11.67 59.985 11.7533 59.9184 11.8C59.8584 11.8467 59.7717 11.87 59.6584 11.87Z" fill="white"/>
</svg>
